<svg width="26" height="26" viewBox="0 0 26 26" fill="none" xmlns="http://www.w3.org/2000/svg">
<path d="M1 7.19995C1 3.88624 3.68629 1.19995 7 1.19995H19C22.3137 1.19995 25 3.88624 25 7.19995V19.2C25 22.5137 22.3137 25.2 19 25.2H7C3.68629 25.2 1 22.5137 1 19.2V7.19995Z" fill="#263238"/>
<path d="M13.0503 17.32C12.2503 17.32 11.6183 17.096 11.1543 16.648C10.6903 16.2 10.4583 15.584 10.4583 14.8V10.84C10.4583 10.056 10.6903 9.43995 11.1543 8.99195C11.6183 8.54395 12.2503 8.31995 13.0503 8.31995C13.8343 8.31995 14.4583 8.54795 14.9223 9.00395C15.3863 9.45195 15.6183 10.064 15.6183 10.84H14.5383C14.5383 10.344 14.4063 9.96395 14.1423 9.69995C13.8863 9.42795 13.5223 9.29195 13.0503 9.29195C12.5783 9.29195 12.2063 9.42395 11.9343 9.68795C11.6703 9.95195 11.5383 10.332 11.5383 10.828V14.8C11.5383 15.296 11.6703 15.68 11.9343 15.952C12.2063 16.216 12.5783 16.348 13.0503 16.348C13.5223 16.348 13.8863 16.216 14.1423 15.952C14.4063 15.68 14.5383 15.296 14.5383 14.8H15.6183C15.6183 15.576 15.3863 16.192 14.9223 16.648C14.4583 17.096 13.8343 17.32 13.0503 17.32Z" fill="white"/>
<path d="M7 1.94995H19V0.449951H7V1.94995ZM24.25 7.19995V19.2H25.75V7.19995H24.25ZM19 24.45H7V25.95H19V24.45ZM1.75 19.2V7.19995H0.25V19.2H1.75ZM7 24.45C4.10051 24.45 1.75 22.0994 1.75 19.2H0.25C0.25 22.9279 3.27208 25.95 7 25.95V24.45ZM24.25 19.2C24.25 22.0994 21.8995 24.45 19 24.45V25.95C22.7279 25.95 25.75 22.9279 25.75 19.2H24.25ZM19 1.94995C21.8995 1.94995 24.25 4.30046 24.25 7.19995H25.75C25.75 3.47203 22.7279 0.449951 19 0.449951V1.94995ZM7 0.449951C3.27208 0.449951 0.25 3.47203 0.25 7.19995H1.75C1.75 4.30046 4.10051 1.94995 7 1.94995V0.449951Z" fill="#4DA6FF"/>
</svg>
