<svg width="26" height="26" viewBox="0 0 26 26" fill="none" xmlns="http://www.w3.org/2000/svg">
<path d="M1 7.19995C1 3.88624 3.68629 1.19995 7 1.19995H19C22.3137 1.19995 25 3.88624 25 7.19995V19.2C25 22.5137 22.3137 25.2 19 25.2H7C3.68629 25.2 1 22.5137 1 19.2V7.19995Z" fill="#263238"/>
<path d="M10.4823 17.2V8.43995H11.9223L14.5983 15.94C14.5823 15.74 14.5623 15.496 14.5383 15.208C14.5223 14.912 14.5063 14.604 14.4903 14.284C14.4823 13.956 14.4783 13.648 14.4783 13.36V8.43995H15.5223V17.2H14.0823L11.4183 9.69995C11.4343 9.89195 11.4503 10.136 11.4663 10.432C11.4823 10.72 11.4943 11.028 11.5023 11.356C11.5183 11.676 11.5263 11.984 11.5263 12.28V17.2H10.4823Z" fill="white"/>
<path d="M7 1.94995H19V0.449951H7V1.94995ZM24.25 7.19995V19.2H25.75V7.19995H24.25ZM19 24.45H7V25.95H19V24.45ZM1.75 19.2V7.19995H0.25V19.2H1.75ZM7 24.45C4.10051 24.45 1.75 22.0994 1.75 19.2H0.25C0.25 22.9279 3.27208 25.95 7 25.95V24.45ZM24.25 19.2C24.25 22.0994 21.8995 24.45 19 24.45V25.95C22.7279 25.95 25.75 22.9279 25.75 19.2H24.25ZM19 1.94995C21.8995 1.94995 24.25 4.30046 24.25 7.19995H25.75C25.75 3.47203 22.7279 0.449951 19 0.449951V1.94995ZM7 0.449951C3.27208 0.449951 0.25 3.47203 0.25 7.19995H1.75C1.75 4.30046 4.10051 1.94995 7 1.94995V0.449951Z" fill="#E14DFF"/>
</svg>
